<mxfile host="app.diagrams.net" modified="2024-05-16T05:56:41.688Z" agent="Mozilla/5.0 (Macintosh; Intel Mac OS X 10_15_7) AppleWebKit/537.36 (KHTML, like Gecko) Chrome/124.0.0.0 Safari/537.36" version="24.4.2" etag="fQG8IzPyUn9yolp2n9XA" type="github">
  <diagram name="Page-1" id="EWnIUpcFFctnfsnZZHaX">
    <mxGraphModel>
      <root>
        <mxCell id="0" />
        <mxCell id="1" parent="0" />
      </root>
    </mxGraphModel>
  </diagram>
</mxfile>
